<svg width="795" height="479" viewBox="0 0 795 479" fill="none" xmlns="http://www.w3.org/2000/svg">
<path d="M388.059 324.712C388.393 322.408 388.77 320.109 389.175 317.81L390.775 318.091C391.176 315.814 391.605 313.534 392.049 311.244L390.455 310.935C390.897 308.656 391.352 306.371 391.808 304.076L391.808 304.075L393.403 304.392C393.855 302.118 394.307 299.828 394.747 297.521L393.151 297.216L393.151 297.217C393.585 294.941 394.003 292.649 394.398 290.337L394.401 290.336L396.003 290.61C396.395 288.314 396.761 285.995 397.09 283.649L395.481 283.422L395.481 283.423C395.801 281.136 396.086 278.826 396.321 276.488L396.322 276.487L397.938 276.649C398.171 274.334 398.357 271.988 398.485 269.609L396.862 269.522L396.86 269.522C396.984 267.225 397.052 264.898 397.054 262.536L397.056 262.536L398.681 262.538C398.684 260.212 398.623 257.852 398.49 255.456L396.867 255.546L396.867 255.547C396.739 253.258 396.542 250.936 396.272 248.577L396.275 248.576L397.889 248.391C397.625 246.087 397.289 243.748 396.874 241.372L395.274 241.652L395.271 241.653C394.879 239.404 394.413 237.121 393.87 234.802L393.872 234.8L395.454 234.43C394.928 232.183 394.328 229.902 393.649 227.586L392.089 228.043L392.087 228.044C391.447 225.862 390.737 223.648 389.95 221.398L389.954 221.396L391.487 220.86C390.729 218.691 389.9 216.492 388.997 214.26L387.49 214.869L387.489 214.87C386.637 212.765 385.717 210.63 384.728 208.463L384.73 208.461L386.209 207.787C385.718 206.711 385.209 205.628 384.683 204.537C384.15 203.432 383.604 202.343 383.047 201.269L381.604 202.017L381.604 202.017C380.504 199.896 379.358 197.835 378.167 195.833L378.168 195.833L379.563 195.002C378.34 192.947 377.071 190.952 375.756 189.016L374.412 189.929L374.412 189.929C373.07 187.954 371.68 186.042 370.246 184.189L370.247 184.188L371.532 183.193C370.071 181.307 368.563 179.481 367.011 177.715L365.79 178.788L365.79 178.788C364.222 177.005 362.605 175.284 360.946 173.621L360.948 173.618L362.099 172.471C360.415 170.782 358.686 169.154 356.914 167.584L355.836 168.8L355.834 168.803C354.068 167.239 352.26 165.732 350.409 164.281L350.411 164.278L351.414 162.999C349.538 161.529 347.62 160.115 345.663 158.756L344.737 160.09V160.091C342.812 158.754 340.847 157.47 338.845 156.236V156.234L339.698 154.851C337.672 153.602 335.608 152.404 333.51 151.255L332.73 152.681L332.729 152.683C330.682 151.562 328.6 150.489 326.485 149.459L326.487 149.457L327.198 147.995C325.062 146.956 322.895 145.962 320.697 145.011L320.052 146.502L320.05 146.505C317.911 145.579 315.743 144.694 313.547 143.848L313.549 143.845L314.133 142.329C311.923 141.477 309.686 140.665 307.424 139.89L306.896 141.427V141.428C304.69 140.672 302.458 139.952 300.204 139.264L300.204 139.262L300.679 137.708C298.42 137.019 296.14 136.363 293.838 135.738L293.413 137.307L293.412 137.309C291.156 136.697 288.879 136.114 286.583 135.56V135.558L286.964 133.978C284.676 133.426 282.37 132.902 280.047 132.403L279.705 133.992L279.704 133.994C277.411 133.502 275.101 133.034 272.776 132.591V132.59L273.08 130.994C270.774 130.554 268.453 130.138 266.119 129.742L265.848 131.344L265.847 131.346C263.527 130.953 261.194 130.58 258.849 130.228V130.227L259.091 128.62C256.773 128.272 254.444 127.942 252.106 127.629L251.89 129.24V129.241C249.56 128.93 247.22 128.636 244.87 128.357V128.356L245.062 126.742C242.729 126.465 240.388 126.204 238.04 125.956L237.868 127.571V127.574C235.568 127.331 233.26 127.097 230.946 126.878L230.845 126.869L230.998 125.251C228.652 125.03 226.301 124.82 223.946 124.621L223.81 126.239V126.242C221.471 126.044 219.127 125.856 216.781 125.677V125.674L216.904 124.053C214.555 123.873 212.202 123.702 209.848 123.537L209.734 125.158V125.159C207.389 124.995 205.043 124.838 202.695 124.686V124.685L202.8 123.064C200.451 122.912 198.101 122.765 195.753 122.622L195.654 124.244L195.653 124.246C193.302 124.103 190.951 123.964 188.603 123.827V123.825L188.697 122.203C186.346 122.065 183.997 121.93 181.652 121.796L181.559 123.418C179.207 123.283 176.859 123.148 174.515 123.013L174.608 121.392C172.252 121.256 169.901 121.119 167.556 120.98L167.461 122.602C165.114 122.462 162.774 122.322 160.441 122.176V122.175L160.543 120.554C158.179 120.406 155.823 120.253 153.476 120.095L153.367 121.716C151.017 121.558 148.677 121.393 146.346 121.221L146.466 119.602C144.107 119.428 141.759 119.247 139.424 119.056L139.292 120.674C136.937 120.482 134.595 120.281 132.266 120.067L132.414 118.448C130.065 118.232 127.731 118.005 125.414 117.764L125.246 119.379C122.887 119.134 120.543 118.876 118.217 118.601L118.407 116.988C116.073 116.712 113.757 116.42 111.462 116.11L111.244 117.721C108.883 117.402 106.542 117.064 104.224 116.705L104.472 115.1C102.156 114.741 99.8642 114.362 97.5974 113.96L97.3143 115.559C94.9585 115.141 92.6286 114.699 90.3268 114.228L90.652 112.637C88.3617 112.169 86.1 111.673 83.8696 111.149L83.4981 112.73C81.1633 112.182 78.861 111.601 76.5934 110.986L77.0181 109.417C74.7641 108.805 72.5462 108.159 70.3662 107.476L69.8808 109.026C67.5923 108.31 65.3441 107.552 63.1384 106.75L63.6929 105.224C61.4978 104.426 59.3466 103.586 57.2426 102.7L56.6135 104.196C54.4118 103.269 52.2582 102.292 50.157 101.26L50.8731 99.8009C48.7797 98.7728 46.7401 97.6913 44.7571 96.5534L43.9498 97.9614C41.892 96.7805 39.891 95.541 37.9525 94.2345L38.8613 92.8866C36.9377 91.5901 35.076 90.2298 33.2811 88.8021L32.2722 90.072C30.4285 88.6055 28.6512 87.0686 26.9441 85.4565L28.0579 84.2764C26.3901 82.7013 24.7913 81.054 23.2642 79.3307L22.0489 80.4094C20.4935 78.6543 19.0112 76.821 17.6039 74.9065L18.9118 73.9439C17.5715 72.1206 16.3013 70.2211 15.1035 68.2422L13.7141 69.0832C12.5105 67.0946 11.3786 65.028 10.3222 62.8795L11.7799 62.162C10.786 60.1405 9.859 58.0439 9.00191 55.8692L7.49103 56.4658C6.64399 54.3166 5.86279 52.0943 5.15288 49.7952L5.15357 49.7945L6.70589 49.3153C6.04255 47.167 5.44139 44.949 4.9029 42.6593L3.32158 43.0321C2.79124 40.7771 2.32139 38.4552 1.91496 36.064L3.51631 35.7912C3.14194 33.5885 2.82165 31.3245 2.55647 28.9977L0.942692 29.1821C0.675359 26.8365 0.46445 24.4294 0.310163 21.9591L1.93085 21.8576C1.79352 19.6588 1.70204 17.4081 1.65739 15.1042L0.036021 15.1359C-0.00906699 12.8094 -0.00714032 10.4306 0.0436168 7.9979L1.66499 8.03104C1.69015 6.82538 1.72753 5.60563 1.77686 4.37259C1.8235 3.21027 1.87735 2.04935 1.93844 0.890923L0.31914 0.805987C0.442075 -1.52505 0.590828 -3.8484 0.77144 -6.16357L2.39143 -6.03789C2.57099 -8.33945 2.77947 -10.633 3.01567 -12.9184L1.4019 -13.0848C1.64092 -15.3975 1.9076 -17.7019 2.20361 -19.9977L3.81255 -19.7906C4.10894 -22.0894 4.43443 -24.3799 4.78759 -26.6614L3.18347 -26.9093C3.53873 -29.2043 3.92363 -31.4904 4.33529 -33.7677L5.9318 -33.479C6.34274 -35.7523 6.78189 -38.0167 7.24865 -40.2718L5.65904 -40.6005C6.13103 -42.8809 6.63088 -45.1519 7.15888 -47.4133L8.73951 -47.0439C9.26439 -49.2919 9.81695 -51.5311 10.3968 -53.76L8.82721 -54.1681C9.41201 -56.4161 10.023 -58.6547 10.6626 -60.8829L12.2226 -60.4361C12.8606 -62.6585 13.526 -64.8712 14.2182 -67.0735L12.6686 -67.5596C13.3649 -69.7751 14.0904 -71.9795 14.8404 -74.1743L16.3747 -73.6495C17.1214 -75.8343 17.8948 -78.009 18.6942 -80.1729L17.173 -80.7343C17.9782 -82.9137 18.8082 -85.0828 19.6658 -87.2405L21.1746 -86.6419C22.0274 -88.7872 22.9062 -90.9216 23.8104 -93.0452L22.3175 -93.6805C23.2268 -95.816 24.1628 -97.9403 25.1231 -100.053L26.6002 -99.3829C27.5553 -101.484 28.5353 -103.575 29.5405 -105.654L28.0793 -106.36C29.0901 -108.451 30.1256 -110.53 31.186 -112.598L32.6306 -111.857C33.6836 -113.91 34.7616 -115.952 35.863 -117.982L34.4364 -118.755C35.5427 -120.794 36.6728 -122.821 37.8269 -124.836L39.2356 -124.031C40.3836 -126.035 41.5555 -128.028 42.7504 -130.008L41.3596 -130.846C42.5576 -132.832 43.7802 -134.804 45.0243 -136.765L46.3943 -135.896C47.6301 -137.844 48.8887 -139.78 50.1695 -141.703L48.8195 -142.601C50.107 -144.535 51.4152 -146.457 52.7472 -148.365L54.0786 -147.435C55.3987 -149.326 56.7403 -151.205 58.1037 -153.071L56.7938 -154.028C58.1612 -155.9 59.5512 -157.757 60.9611 -159.603L62.2504 -158.619C63.6535 -160.456 65.0779 -162.279 66.5227 -164.09L65.2535 -165.102C66.6988 -166.914 68.1648 -168.712 69.6508 -170.497L70.8986 -169.459C72.3741 -171.231 73.8699 -172.991 75.385 -174.737L74.1593 -175.799C75.6818 -177.554 77.2229 -179.296 78.7845 -181.024L79.9888 -179.936C81.5352 -181.647 83.1008 -183.344 84.6851 -185.028L83.5036 -186.14C85.0911 -187.827 86.6975 -189.501 88.3222 -191.161L89.4816 -190.027C91.0988 -191.679 92.7343 -193.319 94.3878 -194.944L93.2484 -196.101C94.9011 -197.726 96.573 -199.335 98.261 -200.931L99.3762 -199.754C101.051 -201.339 102.744 -202.909 104.454 -204.466L103.361 -205.665C105.078 -207.229 106.812 -208.779 108.563 -210.315L109.634 -209.095C111.369 -210.617 113.121 -212.124 114.889 -213.618L113.842 -214.856C115.61 -216.35 117.394 -217.833 119.195 -219.299L120.221 -218.039C122.014 -219.499 123.823 -220.945 125.648 -222.377L124.646 -223.652C126.47 -225.083 128.31 -226.501 130.165 -227.904L131.144 -226.61C132.983 -228 134.837 -229.376 136.706 -230.738L135.749 -232.049C137.626 -233.416 139.517 -234.768 141.422 -236.106L142.356 -234.779C144.247 -236.107 146.152 -237.421 148.071 -238.72L147.161 -240.063C149.078 -241.361 151.01 -242.642 152.954 -243.91L153.841 -242.551C155.777 -243.814 157.726 -245.062 159.689 -246.295L158.824 -247.669C160.791 -248.905 162.772 -250.124 164.765 -251.329L165.604 -249.942C167.576 -251.135 169.561 -252.313 171.558 -253.476L170.74 -254.879C172.745 -256.047 174.763 -257.198 176.791 -258.336L177.585 -256.921C179.605 -258.053 181.636 -259.171 183.679 -260.272L182.909 -261.701C184.945 -262.799 186.993 -263.881 189.052 -264.949L189.799 -263.508C191.85 -264.572 193.912 -265.62 195.985 -266.653L195.261 -268.106C197.342 -269.143 199.433 -270.164 201.535 -271.169L202.236 -269.704C204.317 -270.7 206.407 -271.68 208.508 -272.644L207.831 -274.119C209.938 -275.086 212.055 -276.037 214.182 -276.972L214.836 -275.487C216.955 -276.419 219.083 -277.336 221.222 -278.237L220.59 -279.732C222.727 -280.632 224.872 -281.515 227.027 -282.383L227.633 -280.879C229.775 -281.742 231.926 -282.589 234.085 -283.42L233.501 -284.934C235.668 -285.768 237.845 -286.586 240.029 -287.388L240.588 -285.866C242.759 -286.663 244.938 -287.443 247.125 -288.208L246.589 -289.741C248.776 -290.506 250.971 -291.253 253.173 -291.986L253.685 -290.447C255.88 -291.177 258.082 -291.89 260.292 -292.587L259.803 -294.136C262.019 -294.835 264.242 -295.517 266.473 -296.183L266.937 -294.628C269.148 -295.288 271.366 -295.933 273.59 -296.561L273.149 -298.123C275.382 -298.754 277.622 -299.366 279.869 -299.964L280.285 -298.395C282.523 -298.991 284.769 -299.569 287.02 -300.131L286.626 -301.705C288.874 -302.266 291.127 -302.811 293.387 -303.338L293.756 -301.758C296.006 -302.284 298.262 -302.792 300.524 -303.284L300.179 -304.869C302.449 -305.362 304.724 -305.841 307.005 -306.301L307.326 -304.71C309.592 -305.167 311.863 -305.607 314.139 -306.03L313.842 -307.624C316.121 -308.048 318.405 -308.456 320.694 -308.846L320.966 -307.245C323.247 -307.634 325.533 -308.006 327.823 -308.36L327.574 -309.963C329.869 -310.318 332.168 -310.656 334.472 -310.976L334.696 -309.369C336.983 -309.688 339.273 -309.989 341.568 -310.273L341.368 -311.884C343.671 -312.169 345.979 -312.434 348.29 -312.685L348.464 -311.072C350.767 -311.322 353.073 -311.554 355.383 -311.768L355.233 -313.386C357.539 -313.6 359.849 -313.796 362.162 -313.975L362.287 -312.357C364.591 -312.535 366.898 -312.697 369.209 -312.841L369.108 -314.459C371.426 -314.604 373.748 -314.732 376.073 -314.841L376.148 -313.218C378.456 -313.327 380.768 -313.417 383.081 -313.49L383.03 -315.111C385.347 -315.184 387.666 -315.24 389.987 -315.277L390.014 -313.655C392.326 -313.692 394.641 -313.712 396.958 -313.714L396.958 -315.337C399.28 -315.339 401.605 -315.32 403.931 -315.286L403.907 -313.665C406.215 -313.63 408.524 -313.578 410.834 -313.508L410.883 -315.131C413.202 -315.061 415.523 -314.972 417.844 -314.865L417.77 -313.245C420.083 -313.139 422.398 -313.014 424.713 -312.872L424.812 -314.492C427.125 -314.35 429.438 -314.192 431.752 -314.013L431.627 -312.394C433.93 -312.216 436.233 -312.021 438.538 -311.807L438.688 -313.421C441.001 -313.207 443.313 -312.974 445.627 -312.723L445.45 -311.11C447.749 -310.86 450.048 -310.592 452.347 -310.306L452.548 -311.917C454.846 -311.63 457.144 -311.324 459.441 -311L459.215 -309.394C461.504 -309.072 463.794 -308.731 466.083 -308.372L466.334 -309.975C468.631 -309.615 470.928 -309.237 473.224 -308.84L472.947 -307.24C475.218 -306.846 477.488 -306.435 479.758 -306.004L480.059 -307.599C482.337 -307.167 484.614 -306.715 486.889 -306.246L486.561 -304.659C488.828 -304.191 491.094 -303.706 493.358 -303.201L493.712 -304.785C495.975 -304.281 498.236 -303.757 500.496 -303.215L500.119 -301.638C502.361 -301.1 504.602 -300.543 506.842 -299.968L507.246 -301.539C509.493 -300.962 511.739 -300.366 513.982 -299.752L513.554 -298.188C515.789 -297.575 518.021 -296.944 520.252 -296.294L520.707 -297.853C522.925 -297.206 525.141 -296.539 527.355 -295.855L526.876 -294.306C529.082 -293.625 531.284 -292.924 533.485 -292.206L533.989 -293.747C536.197 -293.025 538.404 -292.286 540.607 -291.526L540.078 -289.992L543.368 -288.843C544.473 -288.452 545.575 -288.054 546.673 -287.65L547.234 -289.173C549.444 -288.36 551.64 -287.523 553.821 -286.658L553.222 -285.148C555.391 -284.288 557.545 -283.402 559.685 -282.492L560.321 -283.985C562.476 -283.069 564.617 -282.127 566.743 -281.16L566.07 -279.681C568.199 -278.713 570.314 -277.72 572.414 -276.702L573.122 -278.161C575.234 -277.137 577.331 -276.088 579.414 -275.015L578.671 -273.573C580.742 -272.506 582.798 -271.414 584.84 -270.298L585.618 -271.72C587.678 -270.595 589.725 -269.449 591.755 -268.276L590.942 -266.869C592.962 -265.702 594.968 -264.511 596.958 -263.297L597.802 -264.681C599.804 -263.46 601.792 -262.217 603.764 -260.949L602.887 -259.585C604.849 -258.324 606.795 -257.04 608.727 -255.735L609.636 -257.079C611.578 -255.766 613.504 -254.431 615.416 -253.074L614.479 -251.753C616.381 -250.403 618.268 -249.03 620.141 -247.637L621.111 -248.939C622.992 -247.54 624.857 -246.117 626.708 -244.675L625.711 -243.396C627.548 -241.964 629.371 -240.512 631.179 -239.039L632.205 -240.297C634.022 -238.816 635.823 -237.314 637.61 -235.793L636.558 -234.558C638.336 -233.045 640.1 -231.512 641.849 -229.958L642.926 -231.169C644.674 -229.616 646.409 -228.044 648.128 -226.451L647.025 -225.261C648.734 -223.678 650.43 -222.075 652.11 -220.454L653.236 -221.62C654.924 -219.991 656.599 -218.345 658.257 -216.679L657.107 -215.533C658.752 -213.882 660.381 -212.212 661.996 -210.524L663.168 -211.645C664.785 -209.955 666.388 -208.248 667.976 -206.523L666.783 -205.425C668.364 -203.709 669.93 -201.975 671.482 -200.224L672.698 -201.299C674.254 -199.544 675.794 -197.769 677.321 -195.98L676.087 -194.928C677.597 -193.159 679.093 -191.373 680.574 -189.572L681.829 -190.602C683.316 -188.794 684.789 -186.969 686.248 -185.129L684.976 -184.121C686.429 -182.289 687.867 -180.441 689.291 -178.578L690.58 -179.563C691.999 -177.706 693.406 -175.834 694.797 -173.948L693.49 -172.986C694.873 -171.11 696.242 -169.219 697.597 -167.316L698.919 -168.257C700.279 -166.346 701.624 -164.42 702.955 -162.482L701.619 -161.563C702.94 -159.639 704.248 -157.7 705.542 -155.749L706.895 -156.645C708.186 -154.697 709.464 -152.737 710.727 -150.763L709.359 -149.889C710.618 -147.923 711.863 -145.945 713.093 -143.954L714.473 -144.806C715.708 -142.808 716.929 -140.798 718.136 -138.776L716.743 -137.944C717.936 -135.945 719.115 -133.934 720.281 -131.912L721.688 -132.723C722.857 -130.695 724.01 -128.655 725.151 -126.605L723.733 -125.817C724.87 -123.774 725.993 -121.72 727.103 -119.656L728.532 -120.423C729.641 -118.359 730.738 -116.285 731.82 -114.2L730.379 -113.452C731.452 -111.383 732.511 -109.304 733.557 -107.216L735.008 -107.941C736.057 -105.846 737.093 -103.741 738.115 -101.626L736.653 -100.921C737.672 -98.8134 738.677 -96.6968 739.668 -94.5713L741.14 -95.2563C742.128 -93.1367 743.103 -91.0084 744.064 -88.8716L742.582 -88.2059C743.539 -86.077 744.483 -83.9398 745.414 -81.7943L746.902 -82.4393C747.835 -80.2871 748.754 -78.1266 749.66 -75.9586L748.163 -75.3344C749.064 -73.1775 749.951 -71.0125 750.825 -68.8406L752.332 -69.4455C753.206 -67.2743 754.065 -65.0957 754.912 -62.9103L753.398 -62.324C754.242 -60.1449 755.072 -57.9581 755.889 -55.7653L757.41 -56.3316C758.229 -54.1324 759.036 -51.9269 759.828 -49.7149L758.299 -49.168C759.086 -46.9695 759.86 -44.7647 760.621 -42.554L762.156 -43.0816C762.918 -40.8661 763.667 -38.6449 764.402 -36.4179L762.86 -35.909C763.593 -33.6884 764.312 -31.4622 765.018 -29.2309L766.566 -29.7198C767.273 -27.4835 767.967 -25.2417 768.647 -22.9953L767.094 -22.5251C767.772 -20.2888 768.435 -18.0477 769.086 -15.802L770.646 -16.253C771.298 -14.0008 771.938 -11.7445 772.563 -9.48366L770.997 -9.05139C771.621 -6.79722 772.23 -4.53874 772.826 -2.27656L774.396 -2.68881C774.994 -0.421166 775.578 1.85043 776.149 4.12538L774.575 4.51968C775.144 6.7879 775.699 9.05969 776.241 11.3346L777.821 10.9589C778.365 13.2405 778.896 15.5249 779.413 17.8125L777.827 18.1688C778.342 20.4501 778.843 22.735 779.331 25.0216L780.919 24.6826C781.409 26.9782 781.884 29.2766 782.347 31.5769L780.756 31.8959C781.217 34.1895 781.665 36.4851 782.099 38.7826L783.694 38.4829C784.129 40.7865 784.552 43.0917 784.96 45.3986L783.36 45.681C783.767 47.9858 784.161 50.2921 784.541 52.5995L786.143 52.3371C786.525 54.6539 786.891 56.972 787.245 59.2908L785.641 59.5345C785.994 61.8471 786.334 64.1606 786.659 66.4744L788.266 66.2486C788.592 68.569 788.906 70.8896 789.205 73.2105L787.594 73.417C787.893 75.7429 788.178 78.0691 788.45 80.3949L790.063 80.2077C790.336 82.5397 790.593 84.8716 790.837 87.2028L789.223 87.372C789.467 89.6972 789.696 92.0221 789.912 94.3457L791.528 94.1959C791.745 96.5331 791.949 98.8691 792.138 101.204L792.137 101.203L790.517 101.335C790.706 103.672 790.881 106.009 791.041 108.344L792.661 108.233C792.821 110.574 792.968 112.914 793.1 115.252L791.48 115.343C791.612 117.674 791.729 120.003 791.832 122.33L793.454 122.258C793.558 124.611 793.649 126.962 793.724 129.31L792.101 129.361C792.176 131.703 792.237 134.044 792.284 136.381L793.906 136.35C793.952 138.693 793.983 141.033 794 143.37L792.377 143.381C792.394 145.722 792.397 148.061 792.384 150.394L794.009 150.403C793.997 152.759 793.968 155.11 793.926 157.457L792.302 157.427C792.26 159.767 792.203 162.103 792.13 164.434L793.752 164.485C793.679 166.824 793.593 169.157 793.491 171.486L791.868 171.413C791.764 173.764 791.645 176.111 791.511 178.451L793.132 178.545C792.997 180.893 792.846 183.235 792.681 185.572L791.061 185.457C790.896 187.786 790.716 190.109 790.52 192.426L792.139 192.563C791.941 194.908 791.724 197.246 791.494 199.577L789.879 199.417C789.648 201.755 789.402 204.086 789.14 206.41L790.752 206.593C790.489 208.924 790.21 211.248 789.914 213.564L788.303 213.359C788.008 215.676 787.696 217.985 787.368 220.286L788.975 220.516C788.642 222.855 788.294 225.186 787.928 227.508L786.323 227.253C785.958 229.567 785.576 231.872 785.178 234.167L786.777 234.445C786.377 236.749 785.961 239.043 785.528 241.327L783.933 241.023C783.494 243.339 783.038 245.644 782.565 247.939L784.155 248.268C783.679 250.574 783.186 252.869 782.676 255.153L781.091 254.799C780.583 257.075 780.058 259.34 779.515 261.593L781.093 261.974C780.54 264.267 779.97 266.549 779.382 268.818L777.81 268.411C777.22 270.685 776.613 272.946 775.987 275.194L777.55 275.63C776.922 277.887 776.277 280.132 775.613 282.364L774.056 281.9C773.387 284.146 772.699 286.379 771.994 288.597L773.54 289.09C772.824 291.341 772.09 293.577 771.336 295.799L769.798 295.276C769.047 297.487 768.277 299.683 767.489 301.864L769.015 302.416C768.215 304.627 767.398 306.822 766.56 309L765.044 308.417C764.199 310.613 763.334 312.791 762.45 314.953L763.952 315.568C763.063 317.74 762.153 319.894 761.225 322.031L759.737 321.384C758.805 323.528 757.853 325.653 756.881 327.76L758.356 328.442C757.366 330.588 756.352 332.715 755.32 334.823L753.863 334.109C752.836 336.205 751.789 338.281 750.72 340.337L752.159 341.085C751.075 343.171 749.972 345.237 748.846 347.28L747.423 346.496C746.289 348.553 745.133 350.589 743.955 352.601L745.356 353.421C744.171 355.446 742.964 357.447 741.735 359.426L740.357 358.57C739.746 359.553 739.13 360.53 738.509 361.502L737.544 363.001C737.222 363.499 736.898 363.995 736.574 364.49L737.932 365.381C736.628 367.37 735.309 369.332 733.976 371.267L732.639 370.346C731.306 372.282 729.958 374.191 728.597 376.073L729.912 377.025C728.515 378.958 727.102 380.863 725.676 382.74L724.383 381.756C722.965 383.622 721.533 385.461 720.088 387.271L721.358 388.284L721.359 388.285C719.867 390.153 718.361 391.99 716.841 393.799L715.598 392.754C714.088 394.552 712.564 396.322 711.027 398.061L712.243 399.138C710.665 400.924 709.073 402.68 707.469 404.405L706.28 403.298C704.679 405.02 703.064 406.712 701.437 408.372L702.597 409.51C700.932 411.21 699.253 412.877 697.563 414.512L696.433 413.344C694.742 414.981 693.037 416.586 691.322 418.158L692.42 419.356C690.668 420.962 688.903 422.534 687.127 424.074L686.064 422.848C684.285 424.39 682.495 425.899 680.694 427.374L681.722 428.63C679.884 430.135 678.035 431.606 676.175 433.043L675.182 431.757C673.32 433.195 671.447 434.599 669.564 435.968L670.519 437.282C668.597 438.679 666.666 440.041 664.724 441.366L663.808 440.024C661.866 441.35 659.915 442.639 657.955 443.893L658.83 445.262C656.869 446.516 654.9 447.733 652.922 448.916L652.796 448.991L651.963 447.596C649.947 448.8 647.922 449.966 645.89 451.096L646.679 452.515C644.6 453.671 642.513 454.787 640.419 455.865L639.676 454.421C637.592 455.494 635.5 456.529 633.403 457.526L634.099 458.993C631.95 460.014 629.794 460.996 627.633 461.937L626.984 460.447C624.833 461.384 622.676 462.282 620.515 463.139L621.113 464.649C618.905 465.525 616.693 466.361 614.476 467.155V467.154L613.928 465.624C611.717 466.416 609.501 467.168 607.283 467.878L607.778 469.425C605.56 470.135 603.339 470.805 601.115 471.434L600.998 471.467L600.556 469.904C598.294 470.542 596.029 471.139 593.764 471.694L594.149 473.271C591.954 473.808 589.758 474.307 587.561 474.766L587.255 474.829L586.925 473.238C584.621 473.715 582.317 474.149 580.015 474.539L580.287 476.141C577.957 476.536 575.628 476.887 573.301 477.194L573.088 475.584C570.757 475.892 568.427 476.156 566.101 476.375L566.255 477.993V477.994C563.899 478.216 561.547 478.393 559.199 478.525L559.108 476.902C556.766 477.034 554.429 477.122 552.097 477.164L552.126 478.788C549.759 478.831 547.397 478.827 545.043 478.778L545.077 477.155C542.736 477.107 540.403 477.013 538.077 476.873L537.98 478.495C535.616 478.354 533.261 478.166 530.914 477.932V477.93L531.075 476.314C528.745 476.081 526.425 475.802 524.115 475.477L523.889 477.085C521.548 476.756 519.218 476.379 516.9 475.956L517.192 474.359C514.889 473.939 512.597 473.472 510.319 472.959L509.962 474.544C507.659 474.025 505.369 473.46 503.093 472.847L503.515 471.279C501.256 470.671 499.011 470.017 496.782 469.316L496.295 470.865C494.044 470.157 491.808 469.402 489.589 468.601L490.141 467.072C487.943 466.278 485.762 465.438 483.6 464.551L482.983 466.055V466.056C480.801 465.161 478.638 464.219 476.494 463.231L477.174 461.755C475.053 460.778 472.951 459.755 470.87 458.687L470.128 460.131C468.032 459.055 465.957 457.932 463.904 456.763L464.707 455.352C462.68 454.199 460.674 453 458.691 451.756L457.829 453.133C455.832 451.88 453.859 450.583 451.909 449.24L452.829 447.903C450.912 446.582 449.019 445.218 447.151 443.81L446.173 445.107C444.292 443.69 442.435 442.23 440.605 440.724V440.723L441.637 439.468C439.84 437.99 438.068 436.47 436.323 434.907L435.24 436.116C433.489 434.548 431.765 432.938 430.069 431.285L431.202 430.121C429.533 428.495 427.891 426.827 426.276 425.118L425.095 426.234L425.094 426.234C423.485 424.531 421.905 422.785 420.352 421.001L421.577 419.934C420.045 418.174 418.542 416.374 417.067 414.534L415.8 415.55C414.338 413.724 412.903 411.861 411.499 409.958L412.805 408.993C411.422 407.12 410.068 405.208 408.743 403.26L407.4 404.173C406.083 402.235 404.796 400.261 403.538 398.25L404.915 397.388C404.292 396.391 403.676 395.386 403.068 394.371C402.458 393.352 401.87 392.34 401.304 391.336L399.89 392.133C398.713 390.044 397.63 387.985 396.635 385.953L398.092 385.238C397.053 383.117 396.111 381.027 395.259 378.966L393.758 379.587C392.845 377.375 392.033 375.195 391.315 373.042L392.855 372.527C392.112 370.303 391.472 368.109 390.925 365.944L389.352 366.342C388.77 364.038 388.292 361.764 387.905 359.516L389.504 359.24C389.11 356.948 388.814 354.683 388.604 352.44L386.988 352.592C386.768 350.24 386.641 347.913 386.594 345.606L388.217 345.573C388.17 343.263 388.204 340.97 388.307 338.69L386.686 338.619C386.792 336.282 386.967 333.961 387.2 331.65L388.816 331.812C389.048 329.517 389.336 327.23 389.667 324.944L388.059 324.712Z" stroke="#CED4DE" stroke-width="3.25" stroke-dasharray="7 7"/>
</svg>
